<?xml version="1.0" encoding="utf-8"?>
<!-- Generator: Adobe Illustrator 27.0.1, SVG Export Plug-In . SVG Version: 6.00 Build 0)  -->
<svg version="1.1" id="Ebene_1" xmlns="http://www.w3.org/2000/svg" xmlns:xlink="http://www.w3.org/1999/xlink" x="0px" y="0px"
	 viewBox="0 0 700 700" style="enable-background:new 0 0 700 700;" xml:space="preserve">
<style type="text/css">
	.st0{fill:#66A4C6;}
</style>
<path class="st0" d="M350,683.6L350,683.6c-16.3,0-29.6-13.3-29.6-29.6V46c0-16.3,13.3-29.6,29.6-29.6l0,0
	c16.3,0,29.6,13.3,29.6,29.6v608C379.6,670.3,366.3,683.6,350,683.6z"/>
<path class="st0" d="M16.4,350L16.4,350c0-16.3,13.3-29.6,29.6-29.6h608c16.3,0,29.6,13.3,29.6,29.6l0,0c0,16.3-13.3,29.6-29.6,29.6
	H46C29.7,379.6,16.4,366.3,16.4,350z"/>
</svg>
