<?xml version="1.0" encoding="utf-8"?>
<!-- Generator: Adobe Illustrator 27.0.1, SVG Export Plug-In . SVG Version: 6.00 Build 0)  -->
<svg version="1.1" id="Ebene_1" xmlns="http://www.w3.org/2000/svg" xmlns:xlink="http://www.w3.org/1999/xlink" x="0px" y="0px"
	 viewBox="0 0 700 700" style="enable-background:new 0 0 700 700;" xml:space="preserve">
<style type="text/css">
	.st0{fill:#66A4C6;}
</style>
<g>
	<path class="st0" d="M662.6,283.5L385.7,39.7c-20.4-17.9-51.1-17.9-71.5,0L37.4,283.5c-12.2,10.7-16.3,27.4-10.6,42.6
		s19.9,25,36.1,25h51.4v268.6c0,29.8,24.3,54.1,54.1,54.1h76.2c21.3,0,38.6-17.3,38.6-38.6V445.5c0-4.4,3.6-8,8-8h117.7
		c4.4,0,8,3.6,8,8v189.6c0,21.3,17.3,38.6,38.6,38.6h76.2c29.8,0,54.1-24.3,54.1-54.1V351h51.4c16.2,0,30.4-9.8,36.1-25
		C678.9,310.9,674.8,294.2,662.6,283.5L662.6,283.5z M644.5,315.2c-0.6,1.5-2.5,5.1-7.4,5.1h-66.7c-8.5,0-15.3,6.9-15.3,15.3v284
		c0,12.9-10.5,23.4-23.4,23.4h-76.2c-4.4,0-8-3.6-8-8V445.6c0-21.3-17.3-38.6-38.6-38.6H291.1c-21.3,0-38.6,17.3-38.6,38.6v189.6
		c0,4.4-3.6,8-8,8h-76.2c-12.9,0-23.4-10.5-23.4-23.4v-284c0-8.5-6.9-15.3-15.3-15.3H62.9c-4.9,0-6.8-3.6-7.4-5.1
		c-0.6-1.5-1.5-5.5,2.2-8.7l276.8-244c8.8-7.8,22.2-7.8,31,0l276.8,243.8C646,309.7,645.1,313.7,644.5,315.2L644.5,315.2z"/>
</g>
</svg>
