<?xml version="1.0" encoding="utf-8"?>
<!-- Generator: Adobe Illustrator 27.0.1, SVG Export Plug-In . SVG Version: 6.00 Build 0)  -->
<svg version="1.1" id="Ebene_1" xmlns="http://www.w3.org/2000/svg" xmlns:xlink="http://www.w3.org/1999/xlink" x="0px" y="0px"
	 viewBox="0 0 700 700" style="enable-background:new 0 0 700 700;" xml:space="preserve">
<style type="text/css">
	.st0{fill:#66A4C6;}
</style>
<path class="st0" d="M674.3,326c-5.7,15.2-19.9,25-36.1,25h-51.4v268.6c0,29.8-24.3,54.1-54.1,54.1h-76.2
	c-21.3,0-38.6-17.3-38.6-38.6V445.5c0-4.4-3.6-8-8-8H292.2c-4.4,0-8,3.6-8,8v189.7c0,21.3-17.3,38.6-38.6,38.6h-76.2
	c-29.8,0-54.1-24.3-54.1-54.1V351.1H63.9c-16.2,0-30.4-9.8-36.1-25s-1.6-31.9,10.6-42.6L315.2,39.7c20.4-17.9,51.1-17.9,71.5,0
	l276.9,243.8C675.8,294.2,679.9,310.9,674.3,326z"/>
</svg>
