<?xml version="1.0" encoding="utf-8"?>
<!-- Generator: Adobe Illustrator 27.0.1, SVG Export Plug-In . SVG Version: 6.00 Build 0)  -->
<svg version="1.1" id="Ebene_1" xmlns="http://www.w3.org/2000/svg" xmlns:xlink="http://www.w3.org/1999/xlink" x="0px" y="0px"
	 viewBox="0 0 700 700" style="enable-background:new 0 0 700 700;" xml:space="preserve">
<style type="text/css">
	.st0{fill:#66A4C6;}
</style>
<path class="st0" d="M497.8,524.2l-49.3-49.3C402.2,514.8,342.1,539,276.4,539c-145.3-0.1-263-117.7-263.2-262.8
	C13,131.2,131.3,12.8,276.3,12.8c145.3,0,263.1,117.8,263.1,263.1c0,65.8-24.2,126.2-64.1,172.1l49.3,49.3l0.7-0.7
	c7-7,18.4-7,25.4,0l124.9,124.9c7,7,7,18.4,0,25.4L648,674.5c-7,7-18.4,7-25.4,0L497.8,549.7C490.7,542.6,490.7,531.2,497.8,524.2
	L497.8,524.2z M276.3,501.3c124.5,0,225.5-101,225.5-225.5S400.8,50.3,276.3,50.3S50.8,151.4,50.8,275.8S151.8,501.3,276.3,501.3z"
	/>
</svg>
