<?xml version="1.0" encoding="utf-8"?>
<!-- Generator: Adobe Illustrator 27.0.1, SVG Export Plug-In . SVG Version: 6.00 Build 0)  -->
<svg version="1.1" id="Ebene_1" xmlns="http://www.w3.org/2000/svg" xmlns:xlink="http://www.w3.org/1999/xlink" x="0px" y="0px"
	 viewBox="0 0 700 700" style="enable-background:new 0 0 700 700;" xml:space="preserve">
<style type="text/css">
	.st0{fill-rule:evenodd;clip-rule:evenodd;fill:#66A4C6;}
	.st1{fill:#66A4C6;}
</style>
<g>
	<path class="st0" d="M637.4,100.3c18.9,0,18.9,29.1,0,29.1h-69.9c-21.1,132.6-42.3,264.4-62.7,392.7c-0.7,7.3-6.6,13.1-14.6,13.1
		H140.5c-18.9,0-18.9-29.1,0-29.1h337.3l5.8-35.7H136.2c-7.3,0-13.1-5.1-13.8-11.7c-20.4-76.5-40.8-153-61.2-229.5
		c-2.9-9.5,3.6-18.9,13.8-18.9h450.9l15.3-96.9c0.7-7.3,6.6-13.1,14.6-13.1L637.4,100.3z M469.1,239.4l-16.8,62.7h59l10.2-63.4H469
		L469.1,239.4z M445,331.2l-10.9,39.3h66.3l6.6-39.3H445z M426.1,399.7L415.2,442h73.6l6.6-42.3H426.1z M385.3,441.2l10.9-42.3
		h-73.6v42.3H385.3z M404.2,370.6l10.9-39.3h-92.5v39.3H404.2z M422.5,302.1l16.8-63.4H322.7v63.4H422.5z M293.5,441.2V399h-62.7
		l10.2,42.3L293.5,441.2L293.5,441.2z M293.5,370.6v-39.3h-79.4l10.2,39.3H293.5z M293.5,302.1v-63.4H190.8l16,63.4H293.5z
		 M211.9,441.2L201.7,399h-64.8l10.9,42.3L211.9,441.2L211.9,441.2z M194.4,370.6l-10.2-39.3h-66.3l10.9,39.3H194.4z M177,302.1
		l-16-63.4H94l16.8,63.4H177z"/>
</g>
<g>
	<path class="st1" d="M209.7,559.6c11.3,0,20.1,8.8,20.1,20.1c0,10.9-9.2,20.1-20.1,20.1c-11.3,0-20.1-8.8-20.1-20.1
		S198.4,559.6,209.7,559.6 M209.7,539.6c-22.6,0-40.1,18.2-40.1,40.1c0,21.9,17.5,40.1,40.1,40.1c21.9,0,40.1-18.2,40.1-40.1
		S232.3,539.6,209.7,539.6L209.7,539.6z"/>
</g>
<g>
	<path class="st1" d="M438.5,559.6c11.3,0,20.1,8.8,20.1,20.1c0,10.9-9.2,20.1-20.1,20.1c-11.3,0-20.1-8.8-20.1-20.1
		S427.2,559.6,438.5,559.6 M438.5,539.6c-22.6,0-40.1,18.2-40.1,40.1c0,21.9,17.5,40.1,40.1,40.1c21.9,0,40.1-18.2,40.1-40.1
		S461.1,539.6,438.5,539.6L438.5,539.6z"/>
</g>
</svg>
