<?xml version="1.0" encoding="utf-8"?>
<!-- Generator: Adobe Illustrator 27.0.1, SVG Export Plug-In . SVG Version: 6.00 Build 0)  -->
<svg version="1.1" id="Ebene_1" xmlns="http://www.w3.org/2000/svg" xmlns:xlink="http://www.w3.org/1999/xlink" x="0px" y="0px"
	 viewBox="0 0 700 700" style="enable-background:new 0 0 700 700;" xml:space="preserve">
<style type="text/css">
	.st0{fill-rule:evenodd;clip-rule:evenodd;fill:#66A4C6;}
</style>
<g>
	<path class="st0" d="M637.4,100.3h-81.6c-8,0-13.9,5.8-14.6,13.1l-11.4,72.5l-0.2,1.3l-3.7,23.2H75c-10.2,0-16.7,9.4-13.8,18.9
		c20.4,76.5,40.8,153,61.2,229.5c0.7,6.6,6.5,11.7,13.8,11.7h347.4l-0.1,0.5l-1,6.2l-4.7,29H140.5c-18.9,0-18.9,29.1,0,29.1h349.7
		c8,0,13.9-5.8,14.6-13.1c2.4-14.9,4.8-29.9,7.2-45c0.3-2.1,0.7-4.1,1-6.2c11.1-69.9,22.5-140.7,33.9-212
		c3.8-23.9,7.6-47.8,11.5-71.7c3.1-19.2,6.1-38.5,9.2-57.7h69.9C656.3,129.4,656.3,100.3,637.4,100.3z M322.7,238.7h116.6
		l-16.8,63.4h-99.8V238.7z M445,331.2h62l-6.6,39.3h-66.3L445,331.2z M94,238.7h67l16,63.4h-66.2L94,238.7z M128.8,370.6l-10.9-39.3
		h66.3l10.2,39.3H128.8z M211.9,441.3h-64.1L136.9,399h64.8L211.9,441.3L211.9,441.3z M293.5,441.3H241L230.8,399h62.7V441.3z
		 M293.5,370.6h-69.2l-10.2-39.3h79.4V370.6z M293.5,302.1h-86.7l-16-63.4h102.7V302.1z M385.3,441.2h-62.7v-42.3h73.6L385.3,441.2z
		 M404.2,370.6h-81.6v-39.3h92.5L404.2,370.6z M415.2,442l10.9-42.3h69.3l-6.6,42.3H415.2z M511.3,302.1h-59l16.8-62.7l-0.1-0.7
		h52.5L511.3,302.1z M209.7,539.6c-22.6,0-40.1,18.2-40.1,40.1c0,21.9,17.5,40.1,40.1,40.1c21.9,0,40.1-18.2,40.1-40.1
		C249.8,557.8,232.3,539.6,209.7,539.6z M438.5,539.6c-22.6,0-40.1,18.2-40.1,40.1c0,21.9,17.5,40.1,40.1,40.1
		c21.9,0,40.1-18.2,40.1-40.1S461.1,539.6,438.5,539.6z"/>
</g>
<path class="st0" d="M558.3,187.1c-3.8,24-7.6,47.8-11.5,71.7c-11.4,71.3-22.8,142.1-33.9,212h-29.4l0.1-0.5H136.2
	c-7.3,0-13.1-5.1-13.8-11.7c-20.4-76.5-40.8-153-61.2-229.5c-2.9-9.5,3.6-18.9,13.8-18.9h450.9l3.7-23.2h28.7V187.1z"/>
</svg>
